<?xml version="1.0" encoding="UTF-8"?>
<!DOCTYPE svg PUBLIC "-//W3C//DTD SVG 1.1//EN" "http://www.w3.org/Graphics/SVG/1.1/DTD/svg11.dtd">
<!-- Creator: CorelDRAW 2017 -->
<svg xmlns="http://www.w3.org/2000/svg" xml:space="preserve" width="297mm" height="420mm" version="1.1" style="shape-rendering:geometricPrecision; text-rendering:geometricPrecision; image-rendering:optimizeQuality; fill-rule:evenodd; clip-rule:evenodd"
viewBox="0 0 29700 42000"
 xmlns:xlink="http://www.w3.org/1999/xlink">
 <defs>
  <style type="text/css">
   <![CDATA[
    .fil0 {fill:#158342}
   ]]>
  </style>
 </defs>
 <g id="Réteg_x0020_1">
  <metadata id="CorelCorpID_0Corel-Layer"/>
  <path class="fil0" d="M2469.26 20642.06l0 828.19c21.06,56.15 42.11,582.54 56.15,694.84 91.24,1017.69 336.89,2112.58 680.8,3060.09 477.26,1298.43 1158.06,2512.64 2028.36,3572.44l519.37 603.6c28.08,35.09 63.17,56.15 91.24,91.24 35.1,35.09 56.15,63.17 91.25,98.26 301.8,322.85 821.17,800.11 1172.1,1066.82 526.39,421.11 947.5,715.89 1558.12,1066.82 308.81,182.48 638.68,357.95 982.6,512.35 701.85,322.86 1396.69,575.53 2210.84,779.07 407.08,105.28 828.19,182.48 1249.3,245.65 224.6,28.07 449.19,56.14 680.8,70.18 98.26,14.04 666.77,35.09 708.88,49.13l701.85 0c42.11,-14.04 603.6,-35.09 708.88,-49.13 2252.95,-189.5 4253.24,-947.51 6078.07,-2217.86 147.39,-98.26 294.78,-210.56 435.15,-315.84 161.43,-133.35 463.22,-371.98 617.63,-512.35 70.19,-63.17 126.34,-119.32 196.52,-182.48 182.48,-154.41 596.58,-589.57 758.01,-758.01 119.31,-133.35 231.61,-259.69 350.92,-400.06 1179.12,-1417.75 2098.55,-3158.35 2533.7,-5011.25 98.26,-407.07 182.49,-828.19 238.63,-1263.34 49.13,-357.94 77.21,-673.78 98.26,-1031.73 0,-77.2 0,-322.85 14.04,-371.98l0 -617.63c-14.04,-42.11 -35.09,-603.6 -49.13,-708.88 -49.13,-645.7 -161.43,-1319.49 -315.83,-1930.1 -203.54,-814.15 -456.21,-1501.97 -779.06,-2210.85 -400.06,-898.37 -1108.94,-2021.34 -1747.63,-2751.27 -308.81,-357.95 -645.7,-736.95 -996.63,-1059.8 -175.46,-147.39 -301.8,-280.74 -498.32,-442.17 -800.11,-666.77 -1768.67,-1319.49 -2730.22,-1754.64 -343.91,-154.41 -694.83,-315.84 -1066.82,-442.17 -863.28,-294.78 -1473.89,-463.23 -2393.33,-596.58 -217.57,-35.09 -442.16,-63.16 -666.76,-84.22 -119.31,-7.02 -645.71,-28.07 -694.84,-49.13l-884.33 0c-42.11,14.04 -596.58,42.11 -701.86,49.13 -224.59,21.06 -456.21,49.13 -673.78,84.22 -1979.23,308.82 -3733.87,1003.66 -5341.12,2140.66 -603.6,435.15 -1151.05,898.38 -1614.27,1375.64 -168.45,175.46 -393.04,393.04 -547.45,582.54 -189.5,224.59 -315.83,364.97 -512.35,617.63 -575.53,750.99 -989.62,1466.88 -1403.71,2330.16 -315.84,652.73 -596.58,1452.84 -786.09,2217.87 -161.42,659.74 -252.66,1249.3 -315.83,1930.1 -7.02,105.28 -28.07,652.73 -42.11,694.84zm11854.34 -11791.18c-1382.65,70.19 -2533.7,308.82 -3783,772.04 -1052.78,393.04 -2049.42,954.53 -2947.79,1614.27 -154.41,112.3 -280.75,217.58 -421.12,329.87 -329.87,266.71 -919.43,814.16 -1186.13,1108.94 -280.75,308.81 -421.12,456.2 -701.86,814.15 -729.93,912.41 -1221.23,1803.77 -1684.45,2877.61 -666.77,1551.1 -975.58,3446.11 -898.38,5165.65 84.22,2063.46 708.88,4098.84 1775.7,5818.39 428.13,694.84 779.06,1144.03 1291.41,1740.6 154.41,182.48 610.62,645.71 758.01,772.04 568.5,512.36 1024.7,912.41 1698.49,1333.53 617.63,393.04 1263.34,750.98 2000.29,1052.78 1544.08,624.65 3263.62,982.6 5158.64,898.38 1824.82,-84.22 3432.07,-547.45 4842.8,-1235.27 807.13,-400.05 1852.9,-1066.82 2505.62,-1656.38l308.82 -266.7c154.41,-140.37 631.67,-603.6 765.03,-765.03l266.7 -294.78c933.47,-1122.97 1445.82,-1944.13 2028.36,-3305.73 666.77,-1544.09 975.58,-3439.1 898.38,-5158.65 -119.32,-2681.08 -1115.95,-5200.75 -2716.18,-7144.89 -119.32,-140.37 -238.63,-280.74 -350.93,-414.09 -140.37,-161.43 -617.63,-645.71 -758.01,-772.04 -35.09,-35.1 -56.14,-56.15 -98.26,-91.25 -729.92,-701.85 -1663.39,-1319.48 -2554.75,-1810.78 -343.91,-182.48 -680.8,-329.87 -1045.77,-484.28 -1466.87,-617.64 -3340.83,-989.62 -5151.62,-898.38zm126.34 1221.23c-2309.11,119.32 -4253.25,786.08 -6078.07,2119.6 -301.8,217.58 -484.28,386.03 -758.01,610.62l-701.85 673.78c-49.13,56.15 -105.28,112.3 -154.41,168.45l-322.85 371.98c-168.45,210.56 -280.75,343.91 -442.18,575.52 -98.26,126.34 -189.5,259.69 -280.74,400.06 -343.9,526.39 -694.83,1158.06 -954.52,1789.73 -568.5,1396.69 -898.37,2905.68 -835.21,4625.23 63.17,1614.27 477.26,3130.28 1087.88,4372.56 273.72,554.47 666.76,1221.23 1031.72,1698.49 161.43,203.54 287.77,371.99 449.19,568.51 533.41,624.65 912.41,982.59 1565.14,1516 484.28,400.06 1080.86,772.05 1642.35,1080.86 540.42,301.8 1333.52,631.67 1930.1,807.14 1207.19,350.93 2330.16,526.39 3628.59,477.26 1656.38,-70.19 3081.15,-470.24 4365.54,-1094.9 708.88,-336.89 1516.01,-849.24 2091.53,-1319.49 259.69,-217.57 470.25,-400.05 729.94,-645.7 154.4,-147.39 540.42,-547.45 659.74,-701.86 364.96,-449.19 505.34,-589.56 884.34,-1165.08 350.92,-540.43 680.8,-1129.99 947.5,-1782.71 568.51,-1368.62 905.4,-2933.76 842.23,-4625.23 -77.21,-1902.03 -652.73,-3768.97 -1572.16,-5249.88 -217.57,-357.95 -442.16,-694.84 -694.83,-1010.67 -49.13,-70.19 -98.26,-126.34 -147.39,-196.52 -126.34,-147.39 -512.36,-603.6 -645.71,-729.93 -77.21,-70.19 -112.3,-105.28 -175.47,-168.45 -49.13,-49.13 -112.29,-126.33 -168.44,-168.44 -119.31,-112.3 -231.61,-210.56 -350.93,-322.86 -779.06,-701.86 -1986.25,-1445.82 -2954.81,-1838.86 -1424.77,-575.52 -3025,-912.41 -4618.21,-835.21zm49.13 371.98c-828.19,49.13 -1551.1,126.34 -2309.11,329.88 -1375.64,379 -2463.51,898.37 -3572.44,1698.49 -126.34,91.24 -259.69,189.5 -371.99,280.74 -119.31,105.28 -252.66,203.54 -357.94,308.82l-350.93 315.83c-519.37,484.28 -1108.93,1200.18 -1501.97,1796.75 -350.93,547.45 -638.69,1073.84 -919.43,1726.57 -547.45,1235.26 -884.34,2898.66 -821.18,4442.74 63.17,1593.22 442.17,3010.96 1038.75,4246.23 287.76,589.56 638.69,1172.1 989.62,1642.34 140.37,189.5 428.13,561.49 589.56,729.93 238.63,252.67 350.92,407.08 652.72,680.81 526.4,477.25 814.16,743.96 1459.86,1172.09 519.38,336.9 1087.88,652.73 1726.57,919.43 2772.33,1186.14 5993.84,1073.84 8695.99,-224.59 863.28,-414.09 1501.97,-856.26 2196.81,-1424.77 779.06,-631.67 1459.86,-1445.82 2021.35,-2266.99 322.85,-484.28 687.81,-1137.01 926.44,-1726.57 568.51,-1424.76 877.32,-2863.57 814.16,-4442.74 -91.24,-2196.81 -807.14,-4239.21 -2035.39,-5888.57 -336.89,-449.19 -407.07,-519.38 -743.96,-905.4 -42.11,-56.15 -112.3,-126.33 -161.43,-175.46 -491.3,-526.39 -1200.17,-1101.91 -1796.75,-1494.95 -540.43,-357.95 -1080.86,-645.71 -1726.56,-926.45 -1186.14,-519.38 -2954.82,-898.38 -4442.75,-814.16zm-119.32 919.44c-2035.38,112.29 -3804.06,786.07 -5320.07,1916.06l-336.89 266.71c-133.35,91.24 -350.92,301.79 -484.27,421.11 -161.43,140.37 -379.01,400.06 -519.38,533.41 -245.65,231.61 -821.17,1010.67 -982.6,1277.38 -1066.82,1684.45 -1621.28,3565.43 -1523.02,5699.07 91.24,2105.56 912.41,4119.89 2182.77,5649.94 42.11,56.15 91.24,105.27 133.35,161.42 140.37,168.45 294.78,315.84 442.17,470.24 84.22,98.26 203.54,217.58 301.8,301.8l315.83 280.75c814.15,666.76 1593.21,1193.15 2624.94,1600.23 2660.04,1038.74 5376.22,933.46 7930.97,-301.8 547.45,-266.71 1066.82,-596.58 1494.96,-919.43 182.48,-140.37 821.17,-666.76 968.56,-835.21 49.13,-56.15 91.24,-91.24 154.4,-147.39 161.43,-161.43 575.53,-652.72 701.86,-807.13 526.39,-701.86 996.64,-1438.81 1326.51,-2295.07 224.59,-596.58 421.11,-1186.14 547.44,-1866.94 371.99,-2140.66 77.21,-4197.1 -849.24,-6064.03 -287.76,-575.52 -589.56,-1038.75 -919.43,-1494.96 -140.37,-189.5 -252.67,-322.85 -400.06,-498.31l-743.97 -772.05c-245.65,-217.57 -371.98,-336.89 -645.7,-554.46 -343.91,-266.7 -694.84,-498.32 -1080.86,-722.91 -1523.03,-905.39 -3453.13,-1403.71 -5320.07,-1298.43zm-8962.69 9636.48c14.03,3607.53 2000.28,6702.72 4983.17,8316.98 245.65,133.36 1038.75,512.36 1326.51,582.55l0 -13995.01c-800.12,-14.03 -1761.66,0 -2582.83,0l-2070.48 7.02c-63.16,0 -154.4,-21.05 -182.48,28.08 -105.28,140.37 -393.04,673.78 -477.26,835.2 -638.69,1249.31 -1003.65,2765.32 -996.63,4225.18zm9446.97 9425.92c147.39,21.05 561.49,-7.02 715.9,-28.08l0 -13819.54 1235.26 0 0 3846.17c133.35,0 589.56,-168.44 715.9,-217.57 435.14,-182.49 842.22,-421.12 1186.13,-722.91 842.23,-736.95 1298.43,-1600.23 1614.27,-2674.08 21.06,-70.18 77.2,-329.87 98.26,-371.98l1200.17 273.73c-56.15,379 -336.89,1122.97 -484.28,1480.91 -540.43,1263.34 -1558.12,2428.42 -2870.59,3032.02 35.09,35.09 133.35,84.22 175.46,119.31 217.58,147.39 308.82,238.63 505.34,400.06 154.41,126.34 463.23,470.25 582.54,624.65 1656.38,2126.62 1880.97,5179.7 1958.18,5320.07l245.65 -252.67c35.09,-42.11 77.2,-84.22 112.3,-126.33l350.93 -407.08c371.98,-456.2 701.85,-975.58 996.63,-1516.01 442.17,-828.19 835.21,-1958.17 982.6,-3039.03 245.65,-1831.85 7.01,-3495.24 -701.86,-5144.61 -133.35,-315.83 -336.89,-694.83 -505.34,-996.63 -63.16,-98.26 -126.33,-217.57 -196.52,-308.82l-7909.91 0 -7.02 14528.42zm1951.16 -203.54c168.45,-7.02 814.16,-203.54 996.64,-266.7 828.19,-280.75 1649.36,-680.81 2365.25,-1172.1 49.13,-35.1 140.37,-112.3 189.5,-126.34 -7.02,-168.44 -42.11,-400.06 -70.18,-568.5 -231.62,-1670.42 -631.68,-3425.06 -1607.25,-4800.7 -336.9,-470.24 -863.29,-961.54 -1389.68,-1179.11 -105.28,-49.13 -364.96,-147.39 -484.28,-154.41l0 8267.86zm-3853.18 14.04c147.38,42.11 519.37,105.28 666.76,112.29l7.01 -14444.19c-98.26,-7.02 -610.61,-14.03 -673.77,7.02l0 14324.88zm-2723.21 -17455.16l9222.39 0c-56.15,-70.18 -821.17,-421.11 -968.56,-484.28 -2288.05,-961.54 -4990.2,-975.58 -7278.25,0 -147.39,63.17 -919.43,407.08 -975.58,484.28zm2723.21 1888c161.42,14.03 386.01,0 547.44,0 105.28,0 147.39,-14.04 252.67,-14.04l1389.67 0c2217.87,0 4449.77,14.04 6667.63,0 -56.15,-91.24 -512.35,-526.39 -589.56,-596.58 -70.18,-63.17 -140.37,-42.11 -245.65,-42.11l-7432.65 0c-147.39,0 -456.2,-21.06 -589.55,0l0 652.73zm-5172.68 12549.18l3172.38 7.02 7.02 -800.12 -1207.19 0c-14.03,-84.22 -7.02,-231.61 -14.03,-322.86 -21.06,-294.77 -112.3,-533.4 -287.77,-743.96 -350.93,-428.13 -1431.78,-463.23 -1642.34,526.39 -42.11,203.54 -35.09,435.15 -35.09,652.73 0,210.55 -14.04,477.26 7.02,680.8zm-7.02 -2751.28l3186.42 0 0 -1621.29 -680.8 0 0 821.18 -582.54 0 0 -708.88 -659.74 0 0 708.88 -582.54 0 0 -814.16 -680.8 -7.02 0 1621.29zm750.98 -6197.39l-701.85 0c-84.23,133.36 -140.37,505.34 -133.36,701.86 0,266.71 77.21,477.26 196.52,638.69 105.28,147.39 280.75,287.76 512.36,336.89 259.69,56.15 505.33,14.04 694.84,-112.3 400.05,-252.66 617.63,-722.91 800.11,-884.33 203.54,-168.45 449.19,-49.13 463.23,224.59 7.01,119.32 -28.08,252.67 -63.17,357.95 -35.09,98.26 -119.32,273.72 -126.33,308.81l729.93 0c175.46,-449.18 231.61,-954.52 -49.13,-1375.64 -266.71,-414.09 -765.03,-540.42 -1179.12,-322.85 -175.47,91.24 -336.89,266.71 -449.19,400.06 -182.48,210.56 -386.02,659.75 -659.74,624.65 -119.32,-21.05 -175.47,-112.29 -196.52,-238.63 -21.06,-112.3 7.02,-252.67 42.11,-357.95 28.07,-77.2 112.3,-252.67 119.31,-301.8zm2435.44 2091.54l-750.98 -7.02c35.09,231.61 168.44,547.45 -77.21,849.24 -428.13,526.39 -1635.32,379 -1691.47,-357.94 -21.05,-231.62 49.13,-371.99 63.17,-491.3l-750.99 0c-77.2,231.61 -84.22,582.54 -28.07,835.21 56.15,259.68 175.46,463.22 308.82,624.65 498.31,575.52 1361.59,708.87 2105.56,407.07 428.13,-175.46 750.99,-561.48 856.27,-1024.71 77.2,-322.85 42.11,-533.41 -35.1,-835.2zm-3270.65 -2821.46l3347.86 7.02 7.02 -863.29 -3354.88 0 0 856.27zm161.43 -2863.57c919.43,14.03 1993.27,0 2912.7,-7.02l947.51 0c14.04,-77.21 14.04,-547.45 7.02,-652.73 -1031.73,-14.04 -2070.48,7.02 -3102.2,0 -175.47,0 -168.45,49.13 -343.91,217.58 -91.24,84.22 -379.01,364.96 -421.12,442.17zm-1045.76 9089.03c112.3,28.07 624.65,329.87 715.89,357.94 0,-63.16 7.02,-428.13 -7.02,-463.22 -7.02,-28.08 -491.3,-519.38 -575.52,-603.6 -42.11,-42.11 -77.2,-91.24 -126.33,-119.31l-7.02 828.19zm1586.19 2653.01l743.97 7.02c14.03,-119.32 -28.08,-294.78 -77.21,-371.99 -126.33,-224.59 -491.29,-203.53 -596.57,-7.01 -49.13,84.22 -91.24,252.67 -70.19,371.98z"/>
 </g>
</svg>
